<svg width="99" height="27" viewBox="0 0 99 27" fill="none" xmlns="http://www.w3.org/2000/svg">
<path d="M20.267 0.545454V26H17.2841L3.41335 6.0142H3.16477V26H0.0823866V0.545454H3.06534L16.9858 20.581H17.2344V0.545454H20.267ZM34.0415 26.3977C32.202 26.3977 30.6152 25.9917 29.2812 25.1797C27.9554 24.3594 26.9321 23.2159 26.2112 21.7493C25.4986 20.2744 25.1423 18.5592 25.1423 16.6037C25.1423 14.6482 25.4986 12.9247 26.2112 11.4332C26.9321 9.93348 27.9347 8.76515 29.219 7.92827C30.5116 7.0831 32.0197 6.66051 33.7432 6.66051C34.7375 6.66051 35.7194 6.82623 36.6888 7.15767C37.6583 7.48911 38.5408 8.0277 39.3362 8.77344C40.1317 9.51089 40.7655 10.4886 41.2378 11.7067C41.7101 12.9247 41.9463 14.4245 41.9463 16.206V17.4489H27.2304V14.9134H38.9633C38.9633 13.8362 38.7479 12.875 38.317 12.0298C37.8944 11.1847 37.2896 10.5176 36.5024 10.0288C35.7235 9.53989 34.8038 9.29545 33.7432 9.29545C32.5748 9.29545 31.564 9.58546 30.7105 10.1655C29.8653 10.7372 29.2149 11.483 28.7591 12.4027C28.3034 13.3224 28.0756 14.3085 28.0756 15.3608V17.0511C28.0756 18.4929 28.3241 19.7151 28.8213 20.7177C29.3267 21.712 30.0269 22.4702 30.9218 22.9922C31.8167 23.5059 32.8566 23.7628 34.0415 23.7628C34.8121 23.7628 35.5081 23.6551 36.1295 23.4396C36.7593 23.2159 37.302 22.8845 37.7577 22.4453C38.2135 21.9979 38.5656 21.4427 38.8142 20.7798L41.648 21.5753C41.3497 22.5365 40.8484 23.3816 40.1441 24.1108C39.4398 24.8317 38.5698 25.3951 37.534 25.8011C36.4983 26.1989 35.3341 26.3977 34.0415 26.3977ZM48.0831 6.90909L52.657 14.7145L57.2308 6.90909H60.6115L54.4467 16.4545L60.6115 26H57.2308L52.657 18.5923L48.0831 26H44.7024L50.7678 16.4545L44.7024 6.90909H48.0831ZM76.8282 18.1946V6.90909H79.7615V26H76.8282V22.7685H76.6294C76.1819 23.7379 75.4859 24.5624 74.5413 25.2418C73.5967 25.913 72.4035 26.2486 70.9617 26.2486C69.7686 26.2486 68.7079 25.9876 67.7799 25.4656C66.8519 24.9353 66.1227 24.1398 65.5924 23.0792C65.0621 22.0103 64.797 20.6638 64.797 19.0398V6.90909H67.7302V18.8409C67.7302 20.233 68.1196 21.3433 68.8985 22.1719C69.6857 23.0005 70.6883 23.4148 71.9063 23.4148C72.6355 23.4148 73.3771 23.2283 74.1311 22.8555C74.8934 22.4826 75.5315 21.9109 76.0452 21.1403C76.5672 20.3697 76.8282 19.3878 76.8282 18.1946ZM98.6566 11.1847L96.0217 11.9304C95.8559 11.4912 95.6115 11.0645 95.2884 10.6502C94.9735 10.2276 94.5426 9.87962 93.9957 9.60618C93.4489 9.33274 92.7487 9.19602 91.8952 9.19602C90.7269 9.19602 89.7533 9.46532 88.9744 10.0039C88.2038 10.5342 87.8185 11.2095 87.8185 12.0298C87.8185 12.759 88.0837 13.3349 88.614 13.7575C89.1443 14.18 89.9729 14.5322 91.0998 14.8139L93.9336 15.5099C95.6405 15.9242 96.9124 16.5581 97.7493 17.4116C98.5862 18.2567 99.0046 19.3464 99.0046 20.6804C99.0046 21.7741 98.6897 22.7519 98.06 23.6136C97.4386 24.4754 96.5685 25.1548 95.4499 25.652C94.3313 26.1491 93.0304 26.3977 91.5472 26.3977C89.6 26.3977 87.9884 25.9751 86.7124 25.13C85.4363 24.2848 84.6284 23.0502 84.2887 21.4261L87.0728 20.7301C87.3379 21.7576 87.8393 22.5282 88.5767 23.0419C89.3224 23.5556 90.296 23.8125 91.4975 23.8125C92.8647 23.8125 93.9502 23.5225 94.7539 22.9425C95.5659 22.3542 95.9719 21.6499 95.9719 20.8295C95.9719 20.1667 95.7399 19.6115 95.2759 19.1641C94.8119 18.7083 94.0993 18.3686 93.1381 18.1449L89.9563 17.3991C88.208 16.9848 86.9237 16.3427 86.1033 15.4727C85.2913 14.5943 84.8853 13.4964 84.8853 12.179C84.8853 11.1018 85.1877 10.1489 85.7926 9.32031C86.4058 8.49171 87.2385 7.84126 88.2908 7.36896C89.3514 6.89666 90.5529 6.66051 91.8952 6.66051C93.7844 6.66051 95.2676 7.07481 96.3448 7.90341C97.4303 8.73201 98.2009 9.82576 98.6566 11.1847Z" fill="white"/>
</svg>
